# xmcd
#
# Track frame offsets:
# 150
# 16840
# 33568
# 51575
# 65922
# 91289
# 109083
# 158215
# 178512
# 199012
# 221918
#
# Disc length: 3185 seconds
#
#
# Revision: 0
# Processed by: cddbd v1.5.2PL0 Copyright (c) Steve Scherf et al.
# Submitted via: FreeRIP 2.96 
#
DISCID=9f0c6f0b
DTITLE=Dr Aftershave - Dr Aftershave Live In Berlin
DYEAR=1997
DGENRE=R&B
TTITLE0=Abracadabra
TTITLE1=Will It Go Round In Circles
TTITLE2=Roll With It
TTITLE3=Some Kind Of Wonderful
TTITLE4=Medley:Midnight Hour/Hold On I`m Comming
TTITLE5=Stand By Me
TTITLE6=Medley: Long Train Running/Papa Was A Roling Stone
TTITLE7=Superstition
TTITLE8=Do It Again
TTITLE9=Oh Pretty Woman
TTITLE10=Gimme Some Loving
EXTD=
EXTT0=
EXTT1=
EXTT2=
EXTT3=
EXTT4=
EXTT5=
EXTT6=
EXTT7=
EXTT8=
EXTT9=
EXTT10=
PLAYORDER=
